{
  "accessors": [
    {
      "bufferView": 2,
      "componentType": 5126,
      "count": 65532,
      "max": [
        4.339095115661621,
        4.35678243637085,
        2.082021474838257
      ],
      "min": [
        -4.343008041381836,
        -4.20420503616333,
        -2.598137140274048
      ],
      "type": "VEC3"
    },
    {
      "bufferView": 2,
      "byteOffset": 786384,
      "componentType": 5126,
      "count": 65532,
      "max": [
        1.0,
        1.0,
        1.0
      ],
      "min": [
        -1.0,
        -1.0,
        -1.0
      ],
      "type": "VEC3"
    },
    {
      "bufferView": 1,
      "componentType": 5126,
      "count": 65532,
      "max": [
        1.0,
        1.0
      ],
      "min": [
        0.0,
        -7.450580596923828e-08
      ],
      "type": "VEC2"
    },
    {
      "bufferView": 0,
      "componentType": 5125,
      "count": 229653,
      "type": "SCALAR"
    },
    {
      "bufferView": 2,
      "byteOffset": 1572768,
      "componentType": 5126,
      "count": 54722,
      "max": [
        4.339095115661621,
        4.302181243896484,
        2.082021474838257
      ],
      "min": [
        -4.343008041381836,
        -4.200277805328369,
        -2.598137140274048
      ],
      "type": "VEC3"
    },
    {
      "bufferView": 2,
      "byteOffset": 2229432,
      "componentType": 5126,
      "count": 54722,
      "max": [
        1.0,
        0.9998483657836914,
        1.0
      ],
      "min": [
        -1.0,
        -0.9998484253883362,
        -1.0
      ],
      "type": "VEC3"
    },
    {
      "bufferView": 1,
      "byteOffset": 524256,
      "componentType": 5126,
      "count": 54722,
      "max": [
        1.0,
        1.0
      ],
      "min": [
        0.0,
        0.0
      ],
      "type": "VEC2"
    },
    {
      "bufferView": 0,
      "byteOffset": 918612,
      "componentType": 5125,
      "count": 201051,
      "type": "SCALAR"
    },
    {
      "bufferView": 2,
      "byteOffset": 2886096,
      "componentType": 5126,
      "count": 14186,
      "max": [
        4.432780742645264,
        4.424978256225586,
        3.5272727012634277
      ],
      "min": [
        -4.4368391036987305,
        -4.314955234527588,
        -2.562645196914673
      ],
      "type": "VEC3"
    },
    {
      "bufferView": 2,
      "byteOffset": 3056328,
      "componentType": 5126,
      "count": 14186,
      "max": [
        1.0,
        1.0,
        1.0
      ],
      "min": [
        -1.0,
        -1.0,
        -1.0
      ],
      "type": "VEC3"
    },
    {
      "bufferView": 1,
      "byteOffset": 962032,
      "componentType": 5126,
      "count": 14186,
      "max": [
        1.0,
        1.0
      ],
      "min": [
        0.0,
        0.0
      ],
      "type": "VEC2"
    },
    {
      "bufferView": 0,
      "byteOffset": 1722816,
      "componentType": 5125,
      "count": 40998,
      "type": "SCALAR"
    },
    {
      "bufferView": 2,
      "byteOffset": 3226560,
      "componentType": 5126,
      "count": 65532,
      "max": [
        4.361316204071045,
        4.368592262268066,
        3.5088698863983154
      ],
      "min": [
        -4.371413707733154,
        -4.236043930053711,
        -2.577066421508789
      ],
      "type": "VEC3"
    },
    {
      "bufferView": 2,
      "byteOffset": 4012944,
      "componentType": 5126,
      "count": 65532,
      "max": [
        1.0,
        1.0,
        1.0
      ],
      "min": [
        -1.0,
        -1.0,
        -1.0
      ],
      "type": "VEC3"
    },
    {
      "bufferView": 1,
      "byteOffset": 1075520,
      "componentType": 5126,
      "count": 65532,
      "max": [
        1.0,
        1.0
      ],
      "min": [
        0.0,
        -7.450580596923828e-08
      ],
      "type": "VEC2"
    },
    {
      "bufferView": 0,
      "byteOffset": 1886808,
      "componentType": 5125,
      "count": 172212,
      "type": "SCALAR"
    },
    {
      "bufferView": 2,
      "byteOffset": 4799328,
      "componentType": 5126,
      "count": 55271,
      "max": [
        4.367305755615234,
        4.341940402984619,
        3.650054454803467
      ],
      "min": [
        -4.300662994384766,
        -4.23868989944458,
        -2.577066421508789
      ],
      "type": "VEC3"
    },
    {
      "bufferView": 2,
      "byteOffset": 5462580,
      "componentType": 5126,
      "count": 55271,
      "max": [
        1.0,
        1.0,
        1.0
      ],
      "min": [
        -1.0,
        -1.0,
        -1.0
      ],
      "type": "VEC3"
    },
    {
      "bufferView": 1,
      "byteOffset": 1599776,
      "componentType": 5126,
      "count": 55271,
      "max": [
        1.0,
        1.0
      ],
      "min": [
        0.0,
        -7.939524948596954e-08
      ],
      "type": "VEC2"
    },
    {
      "bufferView": 0,
      "byteOffset": 2575656,
      "componentType": 5125,
      "count": 146439,
      "type": "SCALAR"
    },
    {
      "bufferView": 2,
      "byteOffset": 6125832,
      "componentType": 5126,
      "count": 12597,
      "max": [
        4.036373138427734,
        4.102819919586182,
        0.27566829323768616
      ],
      "min": [
        -4.12757682800293,
        -4.024097919464111,
        -3.9933948516845703
      ],
      "type": "VEC3"
    },
    {
      "bufferView": 2,
      "byteOffset": 6276996,
      "componentType": 5126,
      "count": 12597,
      "max": [
        1.0,
        0.999998927116394,
        1.0
      ],
      "min": [
        -1.0,
        -1.0,
        -1.0
      ],
      "type": "VEC3"
    },
    {
      "bufferView": 1,
      "byteOffset": 2041944,
      "componentType": 5126,
      "count": 12597,
      "max": [
        0.8750000596046448,
        1.0
      ],
      "min": [
        0.0,
        -9.35802102475236e-10
      ],
      "type": "VEC2"
    },
    {
      "bufferView": 0,
      "byteOffset": 3161412,
      "componentType": 5125,
      "count": 50316,
      "type": "SCALAR"
    },
    {
      "bufferView": 2,
      "byteOffset": 6428160,
      "componentType": 5126,
      "count": 82,
      "max": [
        2.200328826904297,
        2.843702554702759,
        -3.2960920333862305
      ],
      "min": [
        -3.627840042114258,
        -3.212028980255127,
        -3.507106304168701
      ],
      "type": "VEC3"
    },
    {
      "bufferView": 2,
      "byteOffset": 6429144,
      "componentType": 5126,
      "count": 82,
      "max": [
        0.48402702808380127,
        0.39538222551345825,
        -0.780611515045166
      ],
      "min": [
        -0.5918266773223877,
        -0.6107896566390991,
        -0.7806490659713745
      ],
      "type": "VEC3"
    },
    {
      "bufferView": 1,
      "byteOffset": 2142720,
      "componentType": 5126,
      "count": 82,
      "max": [
        0.65625,
        0.3125
      ],
      "min": [
        0.34375,
        1.4901161193847656e-08
      ],
      "type": "VEC2"
    },
    {
      "bufferView": 0,
      "byteOffset": 3362676,
      "componentType": 5125,
      "count": 138,
      "type": "SCALAR"
    },
    {
      "bufferView": 2,
      "byteOffset": 6430128,
      "componentType": 5126,
      "count": 96,
      "max": [
        2.6111812591552734,
        3.1959400177001953,
        -3.2960920333862305
      ],
      "min": [
        2.0553886890411377,
        2.693920135498047,
        -3.9933948516845703
      ],
      "type": "VEC3"
    },
    {
      "bufferView": 2,
      "byteOffset": 6431280,
      "componentType": 5126,
      "count": 96,
      "max": [
        0.9131785035133362,
        0.9343917965888977,
        0.5529629588127136
      ],
      "min": [
        -0.8273342847824097,
        -0.8642674684524536,
        -0.7806377410888672
      ],
      "type": "VEC3"
    },
    {
      "bufferView": 1,
      "byteOffset": 2143376,
      "componentType": 5126,
      "count": 96,
      "max": [
        0.625,
        0.3125
      ],
      "min": [
        0.390625,
        0.3125
      ],
      "type": "VEC2"
    },
    {
      "bufferView": 0,
      "byteOffset": 3363228,
      "componentType": 5125,
      "count": 192,
      "type": "SCALAR"
    }
  ],
  "asset": {
    "extras": {
      "author": "DmitriusRus (https://sketchfab.com/DmitriusRus)",
      "license": "CC-BY-NC-4.0 (http://creativecommons.org/licenses/by-nc/4.0/)",
      "source": "https://sketchfab.com/3d-models/radial-engine-eee62b16cd534d7b802aa3bb069e8b0f",
      "title": "Radial engine"
    },
    "generator": "Sketchfab-12.65.0",
    "version": "2.0"
  },
  "bufferViews": [
    {
      "buffer": 0,
      "byteLength": 3363996,
      "name": "floatBufferViews",
      "target": 34963
    },
    {
      "buffer": 0,
      "byteLength": 2144144,
      "byteOffset": 3363996,
      "byteStride": 8,
      "name": "floatBufferViews",
      "target": 34962
    },
    {
      "buffer": 0,
      "byteLength": 6432432,
      "byteOffset": 5508140,
      "byteStride": 12,
      "name": "floatBufferViews",
      "target": 34962
    }
  ],
  "buffers": [
    {
      "byteLength": 11940572,
      "uri": "scene.bin"
    }
  ],
  "materials": [
    {
      "doubleSided": true,
      "name": "phong3",
      "pbrMetallicRoughness": {
        "baseColorFactor": [
          0.5740747538683572,
          0.63438108020618,
          0.6994024055223932,
          1.0
        ],
        "metallicFactor": 0.9956173780487805,
        "roughnessFactor": 0.580983231707317
      }
    },
    {
      "doubleSided": true,
      "name": "phong2",
      "pbrMetallicRoughness": {
        "baseColorFactor": [
          0.6053283849968216,
          0.20698091283545797,
          0.1096490887167531,
          1.0
        ],
        "metallicFactor": 0.9468368902439024,
        "roughnessFactor": 0.4651295731707317
      }
    },
    {
      "doubleSided": true,
      "name": "phong1",
      "pbrMetallicRoughness": {
        "baseColorFactor": [
          0.7494345424331753,
          0.6485674035422891,
          0.3708910013822764,
          1.0
        ],
        "metallicFactor": 0.9285442073170732,
        "roughnessFactor": 0.44683689024390244
      }
    },
    {
      "doubleSided": true,
      "name": "blinn1",
      "pbrMetallicRoughness": {
        "baseColorFactor": [
          0.046559472231579496,
          0.03813455784053167,
          0.03505770709175219,
          1.0
        ],
        "metallicFactor": 0.6541539634146342,
        "roughnessFactor": 0.7943978658536586
      }
    },
    {
      "doubleSided": true,
      "name": "lambert2",
      "pbrMetallicRoughness": {
        "baseColorFactor": [
          0.0,
          0.0,
          0.0,
          1.0
        ],
        "metallicFactor": 0.0,
        "roughnessFactor": 0.6
      }
    },
    {
      "doubleSided": true,
      "name": "lambert1",
      "pbrMetallicRoughness": {
        "baseColorFactor": [
          0.04167169351225247,
          0.034906514791639594,
          0.034906514791639594,
          1.0
        ],
        "metallicFactor": 0.6541539634146342,
        "roughnessFactor": 0.6
      }
    }
  ],
  "meshes": [
    {
      "name": "ambientLight2_phong3_0",
      "primitives": [
        {
          "attributes": {
            "NORMAL": 1,
            "POSITION": 0,
            "TEXCOORD_0": 2
          },
          "indices": 3,
          "material": 0,
          "mode": 4
        }
      ]
    },
    {
      "name": "ambientLight2_phong3_0",
      "primitives": [
        {
          "attributes": {
            "NORMAL": 5,
            "POSITION": 4,
            "TEXCOORD_0": 6
          },
          "indices": 7,
          "material": 0,
          "mode": 4
        }
      ]
    },
    {
      "name": "ambientLight2_phong2_0",
      "primitives": [
        {
          "attributes": {
            "NORMAL": 9,
            "POSITION": 8,
            "TEXCOORD_0": 10
          },
          "indices": 11,
          "material": 1,
          "mode": 4
        }
      ]
    },
    {
      "name": "ambientLight2_phong1_0",
      "primitives": [
        {
          "attributes": {
            "NORMAL": 13,
            "POSITION": 12,
            "TEXCOORD_0": 14
          },
          "indices": 15,
          "material": 2,
          "mode": 4
        }
      ]
    },
    {
      "name": "ambientLight2_phong1_0",
      "primitives": [
        {
          "attributes": {
            "NORMAL": 17,
            "POSITION": 16,
            "TEXCOORD_0": 18
          },
          "indices": 19,
          "material": 2,
          "mode": 4
        }
      ]
    },
    {
      "name": "ambientLight2_blinn1_0",
      "primitives": [
        {
          "attributes": {
            "NORMAL": 21,
            "POSITION": 20,
            "TEXCOORD_0": 22
          },
          "indices": 23,
          "material": 3,
          "mode": 4
        }
      ]
    },
    {
      "name": "ambientLight2_lambert2_0",
      "primitives": [
        {
          "attributes": {
            "NORMAL": 25,
            "POSITION": 24,
            "TEXCOORD_0": 26
          },
          "indices": 27,
          "material": 4,
          "mode": 4
        }
      ]
    },
    {
      "name": "ambientLight2_lambert1_0",
      "primitives": [
        {
          "attributes": {
            "NORMAL": 29,
            "POSITION": 28,
            "TEXCOORD_0": 30
          },
          "indices": 31,
          "material": 5,
          "mode": 4
        }
      ]
    }
  ],
  "nodes": [
    {
      "children": [
        1
      ],
      "matrix": [
        0.2737676799297333,
        0.0,
        0.0,
        0.0,
        0.0,
        6.078863633124005e-17,
        -0.2737676799297333,
        0.0,
        0.0,
        0.2737676799297333,
        6.078863633124005e-17,
        0.0,
        0.0,
        0.0,
        0.0,
        1.0
      ],
      "name": "Sketchfab_model"
    },
    {
      "children": [
        2
      ],
      "matrix": [
        1.0,
        0.0,
        0.0,
        0.0,
        0.0,
        0.0,
        1.0,
        0.0,
        0.0,
        -1.0,
        0.0,
        0.0,
        0.0,
        0.0,
        0.0,
        1.0
      ],
      "name": "71331c1a19ad4b5baa86ad23b97530a1.fbx"
    },
    {
      "children": [
        3
      ],
      "name": "RootNode"
    },
    {
      "children": [
        4,
        5,
        6,
        7,
        8,
        9,
        10,
        11
      ],
      "matrix": [
        10.0,
        0.0,
        0.0,
        0.0,
        0.0,
        10.0,
        0.0,
        0.0,
        0.0,
        0.0,
        10.0,
        0.0,
        0.0,
        0.0,
        0.0,
        1.0
      ],
      "name": "ambientLight2"
    },
    {
      "mesh": 0,
      "name": "ambientLight2_phong3_0"
    },
    {
      "mesh": 1,
      "name": "ambientLight2_phong3_0"
    },
    {
      "mesh": 2,
      "name": "ambientLight2_phong2_0"
    },
    {
      "mesh": 3,
      "name": "ambientLight2_phong1_0"
    },
    {
      "mesh": 4,
      "name": "ambientLight2_phong1_0"
    },
    {
      "mesh": 5,
      "name": "ambientLight2_blinn1_0"
    },
    {
      "mesh": 6,
      "name": "ambientLight2_lambert2_0"
    },
    {
      "mesh": 7,
      "name": "ambientLight2_lambert1_0"
    }
  ],
  "scene": 0,
  "scenes": [
    {
      "name": "Sketchfab_Scene",
      "nodes": [
        0
      ]
    }
  ]
}
